<svg viewBox="0 0 572.4 136.41" xmlns="http://www.w3.org/2000/svg" xmlns:xlink="http://www.w3.org/1999/xlink"><symbol id="a" viewBox="0 0 203.91 54.48"><path d="m0 1.18h30.36q7.64 0 11.64 3.76a12.17 12.17 0 0 1 4.06 9.29 11.79 11.79 0 0 1 -2.89 8 12.76 12.76 0 0 1 -5.65 3.5q5.64 1.37 8.29 4.66a12.83 12.83 0 0 1 2.66 8.3 14.28 14.28 0 0 1 -1.88 7.31 14 14 0 0 1 -5.2 5.14 17.23 17.23 0 0 1 -6.14 1.7 70.72 70.72 0 0 1 -7.27.72h-27.98zm16.32 20.59h7.09q3.82 0 5.32-1.3a4.75 4.75 0 0 0 1.5-3.78 4.43 4.43 0 0 0 -1.5-3.57q-1.5-1.29-5.21-1.29h-7.2zm0 20.51h8.29c2.79 0 4.77-.49 5.91-1.48a4.94 4.94 0 0 0 1.73-4 4.59 4.59 0 0 0 -1.7-3.72c-1.15-.93-3.13-1.41-6-1.41h-8.23z" fill="#011e41"/><path d="m49.6 1.18h16.16v39.47h25.24v12.9h-41.4z" fill="#8ab7e9"/><path d="m125.07 1.18h16.16v31.22a26.16 26.16 0 0 1 -1.45 8.77 18.61 18.61 0 0 1 -4.54 7.21 17.91 17.91 0 0 1 -6.49 4.35 32.64 32.64 0 0 1 -11.34 1.75 70.91 70.91 0 0 1 -8.36-.54 22 22 0 0 1 -7.57-2.12 19.06 19.06 0 0 1 -5.56-4.52 16.56 16.56 0 0 1 -3.46-6 31.57 31.57 0 0 1 -1.46-8.9v-31.22h16.15v32a9.12 9.12 0 0 0 2.39 6.7 10.28 10.28 0 0 0 13.18 0 9.1 9.1 0 0 0 2.38-6.74z" fill="#8ab7e9"/><path d="m161.4 31.15c.5 5.79 3.86 9.92 10 9.92 3.17 0 6.63-1.18 8.22-3.63h18.31c-4 11-14.75 16.11-26.43 16.11-16.44 0-28.81-9.63-28.81-26.63 0-14.83 10.89-26.92 27.13-26.92 20.39 0 29.18 11.3 29.18 31.15zm18.81-10.15a8.4 8.4 0 0 0 -8.61-8.55c-5.84 0-9.21 3-10.1 8.55z" fill="#8ab7e9"/><path d="m203.91 6a4.45 4.45 0 1 1 -4.41-4.33 4.36 4.36 0 0 1 4.41 4.33zm-7.78 0a3.36 3.36 0 0 0 3.37 3.45 3.31 3.31 0 0 0 3.3-3.45 3.34 3.34 0 1 0 -6.67 0zm2.66 2.24h-1v-4.37a12.12 12.12 0 0 1 1.66-.13 2.32 2.32 0 0 1 1.48.34 1.12 1.12 0 0 1 .45.93 1.11 1.11 0 0 1 -.9 1v.06c.42.13.63.47.76 1a4.18 4.18 0 0 0 .32 1.06h-1.05a3.41 3.41 0 0 1 -.35-1.06c-.08-.44-.34-.66-.89-.66h-.48zm0-2.43h.47c.55 0 1-.19 1-.63s-.29-.66-.92-.66a2.2 2.2 0 0 0 -.55 0z" fill="#011e41"/></symbol><g fill="#011e41"><path d="m302.33 93.76h-15.65l-5.63-31.57h-.15l-5.49 31.57h-15.72l-14.18-51.76h15.79l6.36 32h.15l6.29-32h14.19l6.14 32.44h.15l6.5-32.44h15.92z"/><path d="m349.57 85.35c0 2.83.15 6 1.76 8.41h-14.77a9.94 9.94 0 0 1 -.52-3.55h-.14c-3.07 3.48-7.53 4.5-12.21 4.5-7.32 0-13.39-3.49-13.39-11.4 0-11.9 14-11.46 21.43-12.84 2-.36 3.95-1 3.95-3.34s-2.41-3.48-4.75-3.48c-4.47 0-5.34 2.25-5.42 3.84h-13.45c.22-5.3 2.85-8.42 6.58-10.16s8.48-2.17 12.94-2.17c18.14 0 18 7.47 18 14.73zm-13.89-8.49a25.19 25.19 0 0 1 -5.68 1.81c-3.21.72-4.89 1.52-4.89 4.06 0 1.75 1.9 3.49 4.53 3.49 3.29 0 5.85-2 6.07-5.88z"/><path d="m352.43 42h14.48v51.76h-14.48z"/><path d="m370.35 42h14.47v51.76h-14.47z"/><path d="m400.18 78.16c.37 4.28 2.85 7.33 7.39 7.33 2.34 0 4.9-.87 6.07-2.68h13.53c-2.93 8.12-10.9 11.9-19.53 11.9-12.14 0-21.28-7.11-21.28-19.67 0-11 8-19.88 20-19.88 15.06 0 21.57 8.34 21.57 23zm13.9-7.47a6.21 6.21 0 0 0 -6.37-6.32c-4.31 0-6.8 2.25-7.46 6.32z"/><path d="m446.33 56.1h7.75v8.9h-7.75v13.09c0 3.48.8 5 4.46 5a26 26 0 0 0 3.29-.22v10.89c-2.92 0-6.21.44-9.29.44-6.14 0-12.94-.94-12.94-11.25v-17.95h-6.44v-8.9h6.44v-11.47h14.48z"/></g><rect fill="#8a1a9b" height="32.04" rx="2.33" width="59.6" x="476.51" y="14.67"/><rect fill="#e42e87" height="32.04" rx="2.33" width="59.6" x="476.51" y="20.1"/><rect fill="#ff6c0e" height="32.04" rx="2.33" width="59.6" x="476.51" y="25.6"/><path d="m506.29 37.86a9.58 9.58 0 0 1 -9.18-6.8h-16.71a4.47 4.47 0 0 0 -4.48 4.48v53.39a4.48 4.48 0 0 0 4.48 4.48h51.78a4.49 4.49 0 0 0 4.48-4.48v-53.39a4.48 4.48 0 0 0 -4.48-4.48h-16.72a9.57 9.57 0 0 1 -9.17 6.8z" fill="#8ab7e9"/><path d="m506.29 44.25a20.9 20.9 0 1 0 20.89 20.89 20.89 20.89 0 0 0 -20.89-20.89m0 40.15a19.26 19.26 0 1 1 19.25-19.26 19.27 19.27 0 0 1 -19.25 19.26" fill="#011e41"/><path d="m506.29 45.89a19.26 19.26 0 1 0 19.25 19.25 19.26 19.26 0 0 0 -19.25-19.25m0 37.47a18.22 18.22 0 1 1 18.21-18.22 18.22 18.22 0 0 1 -18.21 18.22" fill="#8ab7e9"/><path d="m506.29 46.93a18.22 18.22 0 1 0 18.21 18.21 18.21 18.21 0 0 0 -18.21-18.21" fill="#011e41"/><path d="m503.36 70.75h3.83c1.51 0 2.57-.53 2.57-2s-1.13-2.15-2.57-2.15h-3.83zm0-7.28h3.7a1.78 1.78 0 0 0 1.94-1.75c0-1.33-.95-1.77-1.95-1.77h-3.7zm-4.77-7.22h8.57c3.16 0 6.63.77 6.63 4.6a4.12 4.12 0 0 1 -2.42 3.69 4.35 4.35 0 0 1 3.16 4.34c0 4.37-3.21 5.7-7.13 5.7h-8.81z" fill="#fff"/><path d="m525 82.24h.27c.16 0 .34 0 .34.21s-.13.23-.32.23h-.29zm-.33 1.4h.33v-.7h.2l.41.7h.39l-.44-.72a.41.41 0 0 0 .43-.44c0-.36-.23-.5-.65-.5h-.62zm-.52-.82a1.11 1.11 0 1 1 1.13 1.18 1.11 1.11 0 0 1 -1.11-1.18zm-.41 0a1.52 1.52 0 1 0 1.52-1.48 1.47 1.47 0 0 0 -1.5 1.48z" fill="#011e41" fill-rule="evenodd"/><use height="54.48" transform="translate(26.57 41.06)" width="203.91" xlink:href="#a"/></svg>